<svg width="512" height="512" viewBox="0 0 512 512" fill="none" xmlns="http://www.w3.org/2000/svg">
<path d="M204.49 303.479C227.562 298.252 249.434 296.504 269.266 303.926C289.642 311.552 308.793 329.235 324.78 365.31C319.607 376.654 316.833 388.967 315.379 399.775C313.409 414.401 299.099 425.827 284.877 421.883C264.612 416.299 241.149 407.591 220.037 405.968C217.255 405.754 187.723 403.514 187.68 403.511C186.587 403.433 185.51 403.27 184.454 403.029C204.61 361.902 208.939 329.279 204.49 303.479ZM148.634 239.015C162.916 248.481 180.226 263.249 189.605 286.129C199.94 311.342 201.035 347.403 175.813 398.845C175.139 398.302 174.494 397.717 173.885 397.09L118.13 339.671C112.037 333.397 110.387 324.039 113.968 316.06C113.977 316.039 142.561 253.213 148.634 239.015ZM284.992 139.01C281.765 147.301 279.994 156.319 279.994 165.751C279.994 196.573 298.901 222.978 325.75 234.002C326.993 240.795 328.699 247.368 331.037 252.96C338.209 270.113 351.371 288.638 358.251 297.753C360.89 301.252 361.295 305.983 359.065 309.756C354.21 317.977 344.617 333.761 331.037 354.012C330.857 354.28 330.679 354.549 330.503 354.819C314.37 321.412 294.722 303.204 272.63 294.936C266.45 292.623 260.144 291.115 253.755 290.255C242.347 260.989 238.974 239.264 239.717 222.148C240.478 204.618 245.567 191.55 251.372 179.724C257.051 168.154 264.045 156.759 267.322 144.085C269.38 136.124 270.024 127.631 268.421 117.958L284.992 139.01ZM231.276 107.554C237.865 101.626 247.067 100.586 254.558 104.062C260.697 119.785 260.681 131.417 258.027 141.682C255.077 153.092 248.995 162.779 242.755 175.493C236.64 187.951 230.966 202.37 230.126 221.732C229.35 239.601 232.702 261.357 243.153 289.398C229.706 288.996 216 291.029 202.421 294.105C201.321 290.048 200.001 286.178 198.488 282.487C187.425 255.5 166.563 238.998 151.112 229.18C153.095 217.198 156.355 193.72 158.488 179.576C159.226 174.684 161.642 170.198 165.32 166.889L231.276 107.554Z" fill="white"/>
</svg>
