<svg width="512" height="512" viewBox="0 0 512 512" fill="none" xmlns="http://www.w3.org/2000/svg">
<path d="M354.361 102.944C389.389 102.944 417.784 131.34 417.784 166.367C417.784 201.395 389.388 229.79 354.361 229.79C319.333 229.79 290.937 201.395 290.937 166.367C290.937 131.34 319.333 102.944 354.361 102.944ZM350.197 128.57C349.092 128.57 348.197 129.465 348.197 130.57V161.485H317.282C316.177 161.485 315.282 162.38 315.282 163.485V170.531C315.282 171.635 316.177 172.531 317.282 172.531H348.197V203.446C348.197 204.55 349.092 205.446 350.197 205.446H357.243C358.347 205.446 359.243 204.55 359.243 203.446V172.531H390.158C391.262 172.531 392.158 171.635 392.158 170.531V163.485C392.158 162.38 391.262 161.485 390.158 161.485H359.243V130.57C359.243 129.465 358.347 128.57 357.243 128.57H350.197Z" fill="white"/>
</svg>
